<?xml version="1.0" encoding="UTF-8"?>
<!DOCTYPE svg PUBLIC "-//W3C//DTD SVG 1.1//EN" "http://www.w3.org/Graphics/SVG/1.1/DTD/svg11.dtd">
<!-- Creator: CorelDRAW -->
<svg xmlns="http://www.w3.org/2000/svg" xml:space="preserve" width="43.3492mm" height="43.3492mm" version="1.1" style="shape-rendering:geometricPrecision; text-rendering:geometricPrecision; image-rendering:optimizeQuality; fill-rule:evenodd; clip-rule:evenodd"
viewBox="0 0 4334.92 4334.92"
 xmlns:xlink="http://www.w3.org/1999/xlink"
 xmlns:xodm="http://www.corel.com/coreldraw/odm/2003">
 <defs>
  <style type="text/css">
   <![CDATA[
    .fil0 {fill:none}
    .fil1 {fill:#333438}
    .fil2 {fill:#BF872E}
   ]]>
  </style>
 </defs>
 <g id="Layer_x0020_1">
  <metadata id="CorelCorpID_0Corel-Layer"/>
  <g id="_1976160611312">
   <path class="fil0" d="M1435.44 1138.65c0,0 412.74,344.98 394.25,665.31"/>
   <path class="fil0" d="M1090.46 732.07c0,0 -141.68,1016.45 739.23,1071.89"/>
   <path class="fil0" d="M1090.46 732.07c997.97,135.53 1164.29,1004.13 1164.29,1004.13l-203.29 271.05c0,0 -86.24,-708.43 -616.02,-868.6"/>
   <path class="fil0" d="M2438.67 1378.89c0,0 157.97,-352.39 445.55,-473.9"/>
   <path class="fil0" d="M2600.69 1480.16c0,0 24.3,-303.79 283.53,-575.17"/>
   <path class="fil0" d="M3232.56 366.28c0,0 196.26,1036.21 -631.87,1113.88"/>
   <path class="fil0" d="M2438.67 1378.89c0,0 -218.73,-793.89 793.89,-1012.61"/>
   <path class="fil0" d="M2865.7 1556.28c-117.47,85.06 -396.95,93.16 -396.95,93.16 0,0 -915.41,927.56 -704.78,1583.74"/>
   <path class="fil0" d="M2011.05 3079.26c0,0 -56.71,-340.24 328.08,-757.44 384.8,-417.2 526.57,-765.54 526.57,-765.54"/>
   <path class="fil0" d="M1763.97 3233.18c0,0 44.55,-133.67 247.08,-153.92"/>
   <path class="fil0" d="M2309.1 2587.43l202.52 -267.33c0,0 453.66,696.69 186.32,1085.54"/>
   <path class="fil0" d="M2483.27 3308.42c0,0 170.12,16.2 214.67,97.22"/>
   <path class="fil0" d="M2309.1 2587.43c0,0 307.83,356.45 174.17,720.99"/>
   <circle class="fil0" cx="2057.96" cy="3421.84" r="190.37"/>
   <circle class="fil0" cx="2475.17" cy="3729.68" r="238.98"/>
   <path class="fil1" d="M1090.46 732.07c0,0 -141.68,1016.45 739.23,1071.89 18.49,-320.33 -394.25,-665.31 -394.25,-665.31 529.78,160.17 616.02,868.6 616.02,868.6l203.29 -271.05c0,0 -166.32,-868.6 -1164.29,-1004.13z"/>
   <path class="fil1" d="M2468.75 1649.44c0,0 -915.41,927.56 -704.78,1583.74 0,0 44.55,-133.67 247.08,-153.92 0,0 -56.71,-340.24 328.08,-757.44 384.8,-417.2 526.57,-765.54 526.57,-765.54 -117.47,85.06 -396.95,93.16 -396.95,93.16z"/>
   <path class="fil1" d="M2511.62 2320.1l-202.52 267.33c0,0 307.83,356.45 174.17,720.99 0,0 170.12,16.2 214.67,97.22 267.34,-388.85 -186.32,-1085.54 -186.32,-1085.54z"/>
   <path class="fil2" d="M2248.34 3421.84c0,-105.14 -85.23,-190.38 -190.38,-190.38 -105.14,0 -190.37,85.24 -190.37,190.38 0,105.14 85.23,190.37 190.37,190.37 105.15,0 190.38,-85.23 190.38,-190.37z"/>
   <path class="fil2" d="M2475.17 3490.7c-131.99,0 -238.98,106.99 -238.98,238.98 0,131.98 106.99,238.97 238.98,238.97 131.98,0 238.98,-106.99 238.98,-238.97 0,-131.99 -107,-238.98 -238.98,-238.98z"/>
   <path class="fil2" d="M2438.67 1378.89c0,0 157.97,-352.39 445.55,-473.9 -259.23,271.38 -283.53,575.17 -283.53,575.17 828.13,-77.67 631.87,-1113.88 631.87,-1113.88 -1012.62,218.72 -793.89,1012.61 -793.89,1012.61z"/>
  </g>
 </g>
</svg>
